<svg width="21" height="13" viewBox="0 0 21 13" fill="none" xmlns="http://www.w3.org/2000/svg">
<path d="M20.8062 11.1153C20.8062 11.0322 20.7231 11.0322 20.7231 10.9492C20.3911 10.285 19.6438 9.4548 18.6476 8.54155C18.1494 8.12644 17.9004 7.79434 17.7343 7.62829C17.4852 7.2962 17.4853 7.04714 17.5683 6.71505C17.6513 6.46598 17.9834 6.05086 18.5645 5.30365C18.8966 4.88853 19.0627 4.63947 19.3117 4.3904C20.5571 2.72995 21.1382 1.65064 20.9722 1.1525L20.8892 1.06949C20.8062 0.986464 20.7231 0.903444 20.5571 0.903444C20.391 0.820421 20.142 0.820421 19.8929 0.903444H16.7381C16.655 0.903444 16.655 0.903444 16.489 0.903444C16.4059 0.903444 16.3229 0.903444 16.3229 0.903444H16.2399H16.1569L16.0739 0.986459C15.9908 1.06948 15.9908 1.06948 15.9908 1.1525C15.6587 2.06575 15.2436 2.81296 14.8285 3.64319C14.5794 4.05831 14.3304 4.47343 14.0813 4.80552C13.8322 5.13761 13.6662 5.38667 13.5001 5.55272C13.3341 5.71877 13.168 5.80179 13.085 5.96783C13.002 6.05086 12.836 6.13389 12.836 6.05086C12.7529 6.05086 12.6699 6.05086 12.6699 5.96783C12.5869 5.88481 12.5039 5.80179 12.4208 5.71876C12.3378 5.63574 12.3378 5.46969 12.2548 5.30365C12.2548 5.1376 12.2548 4.97156 12.2548 4.88853C12.2548 4.80551 12.2548 4.55645 12.2548 4.3904C12.2548 4.14134 12.2548 3.97528 12.2548 3.89226C12.2548 3.64319 12.2548 3.31111 12.2548 2.97902C12.2548 2.64693 12.2548 2.39785 12.2548 2.2318C12.2548 2.06576 12.2548 1.81669 12.2548 1.65065C12.2548 1.40158 12.2548 1.23553 12.2548 1.1525C12.2548 1.06948 12.1718 0.903439 12.1718 0.820416C12.0888 0.737393 12.0057 0.654367 11.9227 0.571344C11.8397 0.488322 11.6736 0.488324 11.5906 0.405301C11.1755 0.322278 10.6774 0.239258 10.0962 0.239258C8.76785 0.239258 7.85459 0.322283 7.5225 0.488329C7.35646 0.571352 7.19041 0.65437 7.10739 0.820416C6.94134 0.986462 6.94134 1.06949 7.02436 1.06949C7.43947 1.15251 7.77157 1.31855 7.93762 1.56762L8.02064 1.73367C8.10367 1.8167 8.10365 1.98273 8.18668 2.2318C8.2697 2.48087 8.2697 2.72994 8.2697 3.06203C8.2697 3.56017 8.2697 4.05831 8.2697 4.3904C8.2697 4.80552 8.18668 5.05458 8.18668 5.30365C8.18668 5.55272 8.10367 5.71877 8.02064 5.80179C7.93762 5.96784 7.93761 6.05086 7.85459 6.05086C7.85459 6.05086 7.85458 6.13388 7.77156 6.13388C7.68854 6.13388 7.60552 6.21691 7.43947 6.21691C7.35645 6.21691 7.19041 6.13389 7.10739 6.05086C6.94134 5.96784 6.7753 5.80179 6.69227 5.63575C6.52623 5.4697 6.36018 5.22063 6.19413 4.88853C6.02808 4.55644 5.779 4.22436 5.61296 3.72622L5.44693 3.39413C5.36391 3.22809 5.19786 2.89599 5.03181 2.48087C4.86577 2.06576 4.69972 1.73367 4.53367 1.31856C4.45065 1.15251 4.36764 1.06948 4.28461 0.986459H4.20158C4.20158 0.986459 4.11855 0.903444 4.03553 0.903444C3.95251 0.903444 3.86949 0.820416 3.78647 0.820416H0.797639C0.465548 0.820416 0.299504 0.903436 0.216481 0.986459L0.133453 1.06949C0.133453 1.06949 0.133453 1.15251 0.133453 1.23553C0.133453 1.31855 0.133458 1.40157 0.216481 1.56762C0.631596 2.56389 1.12973 3.56017 1.62787 4.55645C2.12601 5.4697 2.62415 6.29993 2.95624 6.88109C3.37136 7.46225 3.70344 8.04341 4.11856 8.54155C4.53367 9.03969 4.78274 9.37178 4.86576 9.53782C5.0318 9.70387 5.11482 9.78689 5.19784 9.86991L5.44693 10.119C5.61297 10.285 5.86204 10.5341 6.19413 10.7832C6.52622 11.0322 6.94133 11.2813 7.35645 11.5304C7.77156 11.7794 8.26971 11.9455 8.76785 12.1115C9.34901 12.2776 9.84714 12.3606 10.3453 12.2776H11.5906C11.8397 12.2776 12.0057 12.1946 12.1718 12.0285L12.2548 11.9455C12.2548 11.8625 12.3378 11.8625 12.3378 11.7794C12.3378 11.6964 12.3378 11.6134 12.3378 11.4474C12.3378 11.1153 12.3378 10.8662 12.4208 10.6171C12.5039 10.3681 12.5039 10.202 12.5869 10.036C12.6699 9.86992 12.7529 9.78689 12.836 9.70387C12.919 9.62084 13.002 9.53782 13.002 9.53782H13.085C13.2511 9.4548 13.5001 9.53782 13.6662 9.70387C13.9153 9.86991 14.1643 10.119 14.3304 10.3681C14.4964 10.6171 14.7455 10.8662 15.0776 11.1983C15.4097 11.5304 15.6587 11.7794 15.8248 11.8625L16.0739 12.0285C16.2399 12.1115 16.406 12.1946 16.655 12.2776C16.9041 12.3606 17.0701 12.3606 17.2362 12.3606L20.059 12.2776C20.308 12.2776 20.5571 12.1946 20.7231 12.1115C20.8892 12.0285 20.9722 11.9455 20.9722 11.7794C20.9722 11.6964 20.9722 11.5304 20.9722 11.4474C20.8062 11.2813 20.8062 11.1983 20.8062 11.1153Z" fill="black"/>
</svg>
